<svg xmlns="http://www.w3.org/2000/svg" xmlns:xlink="http://www.w3.org/1999/xlink" viewBox="0,0,256,256" width="30px" height="30px" fill-rule="evenodd"><g fill="#fff8f8" fill-rule="evenodd" stroke="none" stroke-width="1" stroke-linecap="butt" stroke-linejoin="round" stroke-miterlimit="2" stroke-dasharray="" stroke-dashoffset="0" font-family="none" font-weight="none" font-size="none" text-anchor="none" style="mix-blend-mode: normal"><g transform="scale(8.53333,8.53333)"><path d="M15,3c6.623,0 12,5.38 12,12c0,6.62 -5.377,12 -12,12c-6.623,0 -12,-5.38 -12,-12c0,-6.62 5.377,-12 12,-12zM10.099,14.77c-0.807,0.02 -1.558,0.18 -2.158,0.52c-0.768,0.44 -1.319,1.16 -1.553,2.04c-0.249,0.92 -0.107,1.95 0.392,2.8c0.69,1.18 1.923,1.86 3.16,1.86c0.564,0 1.129,-0.14 1.644,-0.44c1.602,-0.91 2.562,-3.42 2.927,-5.46c0.044,-0.25 -0.096,-0.49 -0.332,-0.58c-1.229,-0.44 -2.734,-0.77 -4.08,-0.74zM19.971,14.77c-1.346,-0.03 -2.85,0.3 -4.079,0.74c-0.237,0.09 -0.378,0.33 -0.334,0.58c0.365,2.04 1.326,4.55 2.927,5.46c0.515,0.3 1.08,0.44 1.644,0.44c1.237,0 2.47,-0.67 3.162,-1.86c0.498,-0.85 0.64,-1.88 0.392,-2.8c-0.234,-0.88 -0.787,-1.6 -1.554,-2.04c-0.6,-0.34 -1.35,-0.5 -2.158,-0.52zM15.035,6c-1.991,0 -3.61,1.53 -3.61,3.41c0,1.83 1.694,3.9 3.278,5.24c0.096,0.08 0.214,0.12 0.332,0.12c0.118,0 0.236,-0.04 0.331,-0.13c1.585,-1.33 3.279,-3.4 3.279,-5.23c0,-1.88 -1.62,-3.41 -3.61,-3.41z"></path></g></g></svg>